<?xml version="1.0" encoding="UTF-8" standalone="no"?>
<!-- Created with Inkscape (http://www.inkscape.org/) -->

<svg
   width="256"
   height="256"
   viewBox="0 0 256 256"
   version="1.1"
   id="svg1"
   inkscape:version="1.3.2 (091e20e, 2023-11-25, custom)"
   xml:space="preserve"
   sodipodi:docname="sekirei_body_fill.svg"
   inkscape:export-filename="sekirei_body_fill.png"
   inkscape:export-xdpi="96"
   inkscape:export-ydpi="96"
   xmlns:inkscape="http://www.inkscape.org/namespaces/inkscape"
   xmlns:sodipodi="http://sodipodi.sourceforge.net/DTD/sodipodi-0.dtd"
   xmlns="http://www.w3.org/2000/svg"
   xmlns:svg="http://www.w3.org/2000/svg"><sodipodi:namedview
     id="namedview1"
     pagecolor="#ffffff"
     bordercolor="#999999"
     borderopacity="1"
     inkscape:showpageshadow="2"
     inkscape:pageopacity="0"
     inkscape:pagecheckerboard="0"
     inkscape:deskcolor="#d1d1d1"
     inkscape:document-units="mm"
     showgrid="true"
     inkscape:zoom="4.9552824"
     inkscape:cx="99.187082"
     inkscape:cy="118.35854"
     inkscape:window-width="2256"
     inkscape:window-height="1398"
     inkscape:window-x="-11"
     inkscape:window-y="-11"
     inkscape:window-maximized="1"
     inkscape:current-layer="svg1"
     showguides="true"><inkscape:grid
       id="grid1"
       units="mm"
       originx="0"
       originy="0"
       spacingx="3.7795276"
       spacingy="3.7795276"
       empcolor="#0099e5"
       empopacity="0.30196078"
       color="#0099e5"
       opacity="0.14901961"
       empspacing="5"
       dotted="false"
       gridanglex="30"
       gridanglez="30"
       visible="true" /></sodipodi:namedview><defs
     id="defs1" /><g
     inkscape:label="Layer 1"
     inkscape:groupmode="layer"
     id="layer1"><path
       id="path27"
       style="fill:none;stroke:#000000;stroke-width:1.23338;fill-opacity:1"
       d="M 37.818249,85.400347 C 37.47478,70.829093 38.943138,71.505529 38.943138,64.880118 38.943138,64.880118 33.701984,50.188443 26.456694,49.13386 15.368446,47.718286 9.125892,49.270627 3.1852571,47.392687 6.9808851,43.511765 11.408635,44.204038 22.51958,42.175954 27.173863,40.684859 33.595282,33.153209 45.073845,31.672184 55.927383,30.271802 66.538085,36.094229 71.43113,46.464597 73.558167,50.972658 77.653859,64.181891 82.308148,66.783196 123.40128,89.434037 160.25182,119.93812 194.01104,136.59752 156.24604,139.7599 145.49768,140.36713 128.85103,145.90609 105.95085,153.75948 58.095972,143.63632 42.689704,108.25569 39.773524,101.55866 38.019935,93.956657 37.818249,85.400347 Z"
       sodipodi:nodetypes="sccccssccccs" /><path
       id="path26"
       style="fill:none;stroke:#000000;stroke-width:1.23338"
       d="M 89.435808 145.54986 L 91.616718 153.10789 L 63.461968 188.18568 " /><path
       id="path25"
       style="fill:none;stroke:#000000;stroke-width:1.23338"
       d="M 96.199688 147.11109 L 98.92136 159.86896 L 72.99957 201.75753 " /><path
       id="path24"
       style="fill:none;stroke:#000000;stroke-width:1.23338"
       d="M 54.508914 187.89606 L 68.638163 181.73671 L 72.99957 187.79467 " /><path
       id="path23"
       style="fill:none;stroke:#000000;stroke-width:1.23338"
       d="M 63.881264 201.36365 L 77.219314 194.93859 L 82.308148 201.75753 " /><path
       id="path4"
       style="fill:#000000;fill-opacity:1;stroke:#000000;stroke-width:1.23338"
       d="M 37.818249,85.400347 C 37.47478,70.829093 38.943138,71.505529 38.943138,64.880118 38.943138,64.880118 33.701984,50.188443 26.456694,49.13386 15.368446,47.718286 9.125892,49.270627 3.1852571,47.392687 6.9808851,43.511765 11.408635,44.204038 22.51958,42.175954 23.59872,41.830229 26.088267,41.574804 27.646995,41.574804 32.226964,41.574804 34.225918,38.834334 41.574804,39.050848 47.562792,39.227267 56.46637,43.439386 56.692915,42.933096 57.140188,41.933518 52.717856,38.059211 45.354332,37.037174 42.125358,36.589001 37.957642,36.607793 34.015749,37.795277 31.738507,38.48129 39.261672,32.422101 45.073845,31.672184 55.927383,30.271803 66.538085,36.094229 71.43113,46.464597 73.558167,50.972658 77.653859,64.181891 82.308148,66.783196 123.40128,89.434037 160.25182,119.93812 194.01104,136.59752 157.11882,113.38583 98.267719,109.6063 76.454995,92.402253 66.630403,84.653439 64.25197,79.370081 56.692915,75.590553 49.13386,77.878738 46.380431,92.419122 42.689704,108.25569 39.773524,101.55866 38.019935,93.956657 37.818249,85.400347 Z"
       sodipodi:nodetypes="sccccsssssssccsccs" /></g><circle
     style="fill:#ffffff;stroke:#000000;stroke-width:1.27029"
     id="path3"
     cx="39.200611"
     cy="43.071724"
     r="2.3967919" /></svg>
