<?xml version="1.0" encoding="UTF-8" standalone="no"?>
<!-- Created with Inkscape (http://www.inkscape.org/) -->

<svg
   width="256"
   height="256"
   viewBox="0 0 256 256"
   version="1.1"
   id="svg1"
   inkscape:version="1.3.2 (091e20e, 2023-11-25, custom)"
   xml:space="preserve"
   sodipodi:docname="sekirei_body.svg"
   xmlns:inkscape="http://www.inkscape.org/namespaces/inkscape"
   xmlns:sodipodi="http://sodipodi.sourceforge.net/DTD/sodipodi-0.dtd"
   xmlns="http://www.w3.org/2000/svg"
   xmlns:svg="http://www.w3.org/2000/svg"><sodipodi:namedview
     id="namedview1"
     pagecolor="#ffffff"
     bordercolor="#999999"
     borderopacity="1"
     inkscape:showpageshadow="2"
     inkscape:pageopacity="0"
     inkscape:pagecheckerboard="0"
     inkscape:deskcolor="#d1d1d1"
     inkscape:document-units="mm"
     showgrid="true"
     inkscape:zoom="3.0963543"
     inkscape:cx="98.179979"
     inkscape:cy="113.03616"
     inkscape:window-width="1124"
     inkscape:window-height="1385"
     inkscape:window-x="-9"
     inkscape:window-y="0"
     inkscape:window-maximized="0"
     inkscape:current-layer="svg1"><inkscape:grid
       id="grid1"
       units="mm"
       originx="0"
       originy="0"
       spacingx="3.7795276"
       spacingy="3.7795276"
       empcolor="#0099e5"
       empopacity="0.30196078"
       color="#0099e5"
       opacity="0.14901961"
       empspacing="5"
       dotted="false"
       gridanglex="30"
       gridanglez="30"
       visible="true" /></sodipodi:namedview><defs
     id="defs1" /><g
     inkscape:label="Layer 1"
     inkscape:groupmode="layer"
     id="layer1"><path
       id="path6"
       style="fill:none;stroke:#000000;stroke-width:1.23338"
       d="M 63.881264,201.36365 77.219314,194.93859 82.308148,201.75753 M 54.508914,187.89606 68.638163,181.73671 72.99957,187.79467 M 96.199688,147.11109 98.92136,159.86896 72.99957,201.75753 M 89.435808,145.54986 91.616718,153.10789 63.461968,188.18568 M 194.01104,136.59752 C 156.246,139.7599 145.4977,140.36712 128.85103,145.90609 101.61616,155.24602 39.085449,139.15995 37.818249,85.400347 37.47478,70.829078 38.943138,71.505536 38.943138,64.880118 38.943138,64.880118 33.701991,50.188444 26.456694,49.13386 15.368435,47.718285 9.1258979,49.270629 3.1852571,47.392687 M 3.1852571,47.392687 C 6.9808889,43.511761 11.408624,44.20404 22.51958,42.175954 27.173868,40.684858 33.595271,33.15321 45.073845,31.672184 55.927394,30.271801 66.53808,36.094219 71.43113,46.464597 73.558169,50.972663 77.653854,64.181888 82.308148,66.783196 123.40132,89.43406 160.25179,119.9381 194.01104,136.59752" /></g></svg>
